PathFileType	4	(X/Y/Z)	C:\Users\°ÂÌØÂü\Desktop\20210112\bx_y_5_901-Unnamed.trc
DataRate	CameraRate	NumFrames	NumMarkers	Units	OrigDataRate	OrigDataStartFrame	OrigNumFrames
50.00	50.00	       8	0	mm	50.00	264	       527
Frame#	Time	
		

264	5.260	-770.84357	-62.57830	702.60596	-550.20117	275.63678	1479.14246	-529.26709	90.31720	1348.74231	-723.03607	72.70053	219.97716	-679.94165	203.00060	823.17200	-734.00342	271.58743	873.96466	-886.70215	90.09375	1063.68115	-676.17706	174.36942	158.89108	-750.90314	-77.16862	855.45636	-791.08282	246.31947	632.85022	-690.70026	-21.63217	1039.70313	-540.81305	-77.53467	1484.40662	-749.87817	138.49788	571.20258	-786.06915	241.87209	571.25208	-727.53040	200.64178	536.42651	-818.02283	254.63712	496.27890	-727.60297	9.55635	524.80164	-665.90985	-69.96709	160.28830	-680.53662	202.59998	1052.36304	-624.19458	-79.56801	158.26308	-774.26819	225.37511	202.91058	-882.55988	295.97073	144.58403	-675.42865	53.35955	162.12956	-561.17719	-40.03677	162.44743	-603.68182	18.31508	167.58464	-777.00806	-36.83944	611.92090	-517.96979	-73.02630	143.09062	-595.35242	223.70143	173.00241	-666.14276	300.41733	158.96767	-628.68048	308.39438	161.10760	-561.61194	261.60510	165.13445	-528.10071	303.36450	146.18967	-375.26355	109.76563	1741.84229	-798.57715	176.02618	182.19044	-759.43085	71.49180	570.56329	-796.13092	52.78670	172.88399	-819.34296	-42.56073	479.16818	-772.39606	-9.74146	202.56902	-876.03497	-78.80706	141.24240				-685.22162	-17.36894	804.15002	-784.27808	-33.50401	563.04968							-716.25244	155.29352	219.19751	
265	5.280	-774.10266	-63.16571	702.22559	-544.96149	275.79541	1472.77234				-723.59705	72.12204	220.11438	-683.86346	203.43924	823.00397	-739.52332	271.44568	873.03418	-891.16553	89.69881	1064.38354	-676.34735	174.63573	158.81885				-794.02832	246.90651	632.70746	-694.60889	-21.97217	1039.57227	-534.62366	-77.37630	1477.98999	-752.68866	138.53287	571.11597	-788.84143	242.22963	571.31970	-729.89240	200.86075	536.44495	-820.25482	254.52252	495.46643	-729.89294	9.24418	524.75446	-666.08820	-69.90126	159.92984	-685.30981	202.16533	1050.63025	-624.16400	-79.42876	157.88751	-774.29651	225.30940	202.89890	-882.62634	296.08249	144.69052	-675.70105	52.87756	162.24818	-561.28766	-39.51214	162.56367	-603.90454	18.30125	167.69865	-780.10980	-37.17925	611.52856	-517.99561	-73.23949	142.86002	-595.29578	223.78389	173.24658	-666.44043	300.58609	158.75056	-628.56122	308.40268	160.96167	-561.77704	261.55984	165.02684	-528.54504	303.55038	146.10265	-363.66888	110.53928	1730.86511	-798.62329	175.88597	182.06367	-761.99475	71.18431	570.61176	-796.70178	52.21094	172.68463	-820.87347	-42.22642	478.29086	-772.13843	-10.15077	202.36523	-875.98938	-78.90066	141.15312	-779.05865	273.76602	742.95825	-689.23322	-17.18143	803.72278	-786.95581	-34.03739	562.75061							-716.77063	155.23926	219.47415	
266	5.300	-777.05225	-63.33413	701.58344	-539.29321	275.42581	1466.43909	-759.02222	-77.37952	854.19940	-723.83026	71.99687	220.12007	-689.35754	203.38629	822.30719	-745.11914	271.39642	872.50635	-895.74579	89.00694	1064.75281	-675.68317	174.20340	160.05119				-797.55640	246.51225	631.93494	-698.27063	-21.15034	1039.39844	-528.87689	-77.09998	1470.53613	-755.41730	138.79366	570.60376	-791.63678	242.38994	571.21008	-732.61652	200.99323	536.19946	-822.46930	255.02856	494.73401	-732.15613	9.06715	524.23035	-666.01434	-70.20062	160.27391	-691.00153	201.23566	1049.17554	-623.89612	-79.67616	157.82858	-774.45721	225.59346	202.58693	-882.72131	296.08347	144.60344	-675.55280	52.88828	162.43092	-561.36346	-39.42134	162.55939	-603.94720	18.34107	167.75569	-782.45203	-37.36020	610.81897	-518.02789	-73.02160	143.00674	-595.49756	223.86574	173.44701	-666.45660	300.71344	158.68047	-628.55164	308.57278	160.98634	-562.01349	261.34256	165.03348	-528.12543	303.83212	146.41710	-352.38364	111.06345	1719.82385	-798.79694	176.24231	182.11011	-764.33820	70.65034	570.07855	-796.66333	52.21387	172.43352	-822.56934	-42.95424	477.78351	-772.38361	-10.71459	202.31554	-875.98779	-78.82961	141.22340	-783.61627	274.05936	742.08417				-789.05884	-33.98434	562.31000							-716.75275	155.31090	219.71198	
267	5.320	-780.34869	-63.77852	700.87885	-534.39258	274.95035	1459.42297	-762.68970	-77.94072	853.58972	-723.77582	71.76180	220.24062	-693.76428	204.01282	822.45020	-749.72809	271.54779	872.75806	-899.55804	87.92238	1064.78320	-676.43585	175.01190	160.51271				-801.04694	246.55339	631.37415	-702.69012	-21.29031	1038.91260	-522.60760	-77.13723	1463.09583	-758.09357	139.22531	569.95844	-794.04486	242.46097	570.56293	-735.06573	200.82103	536.07770	-824.64905	255.39590	494.15115	-733.48334	9.06138	524.76318	-666.01093	-70.09553	160.14069	-696.59888	201.38997	1049.27893	-623.93829	-80.16573	158.13495	-774.11389	225.91829	202.54803	-882.72400	296.17868	144.67067	-675.62384	52.93072	162.56555	-561.43097	-39.36802	162.52177	-603.94720	18.34107	167.75569	-784.43854	-37.28119	610.02808	-518.09637	-73.10065	143.02846	-595.47882	224.02101	173.57951	-666.27271	300.47015	158.57689	-628.45984	308.47253	161.05551	-562.12921	261.18826	165.22607	-528.19617	303.71606	146.44278	-341.59229	111.50111	1708.32080	-798.72015	175.94604	182.60886	-766.53589	70.53970	569.64484	-796.68274	52.11939	172.59561	-823.96869	-42.97107	477.30243	-772.24200	-10.66733	202.23045	-876.01624	-78.66915	141.40314	-788.05145	274.99548	742.31036				-791.13007	-34.17746	561.89825							-717.04376	155.64091	220.03415	
268	5.340	-783.23456	-63.48944	700.62030	-529.36243	275.20081	1452.43750	-766.07269	-77.49812	853.63171	-724.12585	71.83621	220.27858	-698.65302	204.03249	822.43494	-753.98975	272.74341	873.61121	-904.93066	87.50002	1065.16675	-676.32727	175.07298	160.93373				-804.06323	247.29056	631.00385	-706.46118	-21.56436	1038.53418	-516.24036	-76.00622	1455.04346	-760.63354	138.86739	570.49200	-796.65424	242.64377	570.32111	-737.11511	201.45488	536.17407	-826.64819	255.54138	493.90585	-735.55011	9.05171	524.67999	-665.98688	-69.96978	160.03740	-701.77148	201.91248	1048.39490	-623.62775	-80.01355	158.14311	-774.36487	225.97014	202.06349	-882.62018	296.00845	144.57794	-675.56128	52.88174	162.80804	-561.27698	-39.47193	162.64395	-604.01306	18.30719	167.80716	-786.92499	-37.55028	609.81989	-517.97296	-73.03898	142.91722	-595.83588	224.21906	173.72086	-666.17334	300.37595	158.62479	-628.51953	308.49371	160.71779	-562.27551	260.97821	165.27589	-527.82379	303.75256	146.50165	-330.91721	111.83871	1696.52356	-798.79736	176.07578	182.49416	-769.00500	70.67254	569.34204	-796.69550	52.03832	172.66391	-825.65662	-43.24864	476.75595	-772.39380	-10.63313	202.01573	-876.19434	-78.65679	141.00586	-792.53534	275.38406	742.01123				-793.51880	-34.33840	561.70746							-717.56439	156.05258	220.53651	
269	5.360	-787.09790	-63.61327	700.09283	-524.21930	275.27414	1445.13928	-770.08600	-77.35260	852.80084	-724.69781	71.50749	220.56744	-703.12958	204.80109	821.91376	-758.84320	273.20380	872.58612	-908.41705	87.39536	1065.17114	-676.28394	174.89897	161.30046				-807.01208	246.69397	629.91467	-709.46594	-20.88948	1037.67981	-510.43671	-75.87692	1446.92908	-763.46039	139.15393	569.57062	-799.22955	242.56676	569.98975	-739.28949	201.94302	536.43738	-828.73853	255.63770	493.15302	-738.21295	8.90746	524.09979	-666.02307	-69.99016	160.02664	-706.40753	202.33630	1046.66235	-623.81000	-80.17806	158.30783	-775.14362	226.06836	201.91991	-882.66388	296.20758	144.77209	-675.87732	52.54547	162.64119	-561.44452	-39.52181	162.71735	-604.05902	18.14862	167.70804	-789.80109	-37.89354	609.80719	-517.80878	-73.22934	143.14989	-596.10120	224.25865	173.64883	-666.27271	300.47015	158.57689	-628.69208	308.55939	160.93719	-562.47382	260.90213	165.36250	-527.98981	303.83023	146.34866	-320.39789	111.80618	1684.23047	-799.25867	176.80746	181.65768	-772.07782	70.42319	568.60675	-797.21832	51.95374	172.38589	-827.77057	-43.57272	476.14316	-772.78235	-10.84722	202.23648	-876.19434	-78.65679	141.00586	-796.82800	275.39114	740.67346				-796.17975	-34.23903	560.71179							-718.11798	156.39961	220.36000	
270	5.380	-790.15900	-63.88919	699.18854	-519.36005	275.16544	1438.03992	-774.17737	-76.93717	852.38556	-725.54425	70.94329	220.69046	-707.43921	205.03847	821.53107	-763.62854	273.96585	872.06110				-676.25757	174.90781	161.64003				-810.73615	246.93227	630.00909	-713.78180	-20.76410	1036.06470	-504.83603	-75.17068	1439.06360	-764.98566	139.52885	569.37219	-802.10291	242.72032	569.30573	-741.78967	202.14137	536.14679	-831.10803	254.96564	492.72501	-740.78412	9.16306	524.05096	-666.07550	-70.10205	160.08218	-710.98755	202.62358	1044.71106	-623.98639	-80.13659	157.74336	-775.18884	226.08148	201.72812	-882.58258	296.13330	144.73563	-676.59851	52.56857	162.97731	-561.69366	-39.40998	162.67566	-604.30377	18.12917	167.78290	-792.98175	-37.91760	608.97156	-517.89117	-73.05511	142.97517	-596.18683	224.28183	173.60339	-666.27271	300.47015	158.57689	-628.81616	308.59579	160.99393	-562.56909	261.00201	165.25262	-528.14282	303.71136	146.23860	-309.59430	112.00872	1671.37769	-799.24481	176.78293	181.47437	-774.76794	70.25729	568.19086	-797.35681	51.58196	172.27225	-830.06384	-43.77839	475.42438	-773.00696	-10.78602	201.88562	-876.04529	-78.51971	140.94417	-801.34283	276.13159	740.73578				-798.88385	-34.41950	560.02081							-718.30469	156.47897	220.37943	
271	5.400	-793.52435	-65.37287	699.18024	-514.80646	275.15457	1430.50183	-778.00317	-76.74708	851.44940	-725.85657	70.91521	221.00410	-712.10651	205.47646	820.98706	-767.88281	274.30133	871.55536	-916.26917	86.82895	1065.63318	-676.57318	175.23323	161.39496				-813.36029	246.75015	628.97607	-718.03339	-20.28804	1035.42566	-499.76331	-74.69981	1430.76221	-767.62439	139.96535	568.61041	-804.65063	242.58742	568.80756	-744.03278	201.71202	535.92944	-833.43164	255.18391	492.04517	-742.24396	8.73016	524.51624	-666.18060	-70.22456	160.01776	-714.77679	202.75801	1043.38660	-623.93787	-80.36611	158.27980	-775.75360	226.20770	201.67223	-882.72003	295.95010	144.57530	-676.65436	52.20039	163.02287	-561.71118	-39.23462	162.60983	-604.48230	18.00648	167.80104	-795.38690	-37.89775	608.62585	-517.92572	-73.17874	143.17499	-596.35236	224.26494	173.55844	-666.33929	300.55103	158.59943	-628.77771	308.62335	160.87784	-562.37012	260.98529	165.52289	-528.27826	303.72644	146.24542	-299.52475	112.16175	1658.40381	-799.39929	176.93703	181.18369	-777.12463	70.32980	568.02850	-797.40033	51.48994	172.13174	-831.98792	-44.28986	475.12469	-773.19830	-10.81622	201.25641	-876.16669	-78.73250	140.95213	-805.57452	276.38382	739.95813				-799.67999	-35.09207	560.71967							-718.49438	156.65903	220.43056	
